# xmcd
#
# Track frame offsets:
#	150
#	22069
#	42197
#	62622
#	83124
#	109679
#	133731
#	165081
#	182399
#	205187
#	227903
#
# Disc length: 3526 seconds
# Revision: 0
# Processed by: cddbd v1.5.2PL0 Copyright (c) Steve Scherf et al.
# Submitted via: dBpowerAMP V12.0
#
DISCID=850dc40b
DTITLE=Latimore - All About the Rhythm and the Bluies
DYEAR=2009
DGENRE=Soul
TTITLE0=City Life
TTITLE1=Drown In My Own Tears
TTITLE2=Around the World
TTITLE3=Every Day Is A Beautiful Day
TTITLE4=Obama and the Fat Man
TTITLE5=Don't Give Up On Our Love
TTITLE6=Every Day I Have the Blues
TTITLE7=Pass the Piano Blues
TTITLE8=Singing and Playing the Blues
TTITLE9=Mr. Right Now
TTITLE10=Around the World Club Mix (bonus)
EXTD=
EXTT0=
EXTT1=
EXTT2=
EXTT3=
EXTT4=
EXTT5=
EXTT6=
EXTT7=
EXTT8=
EXTT9=
EXTT10=
PLAYORDER=
